0
SECTION
2
HEADER
9
$INSUNITS
70
1
9
$ACADVER
1
AC1014
9
$HANDSEED
5
FFFF
0
ENDSEC
0
SECTION
2
TABLES
0
TABLE
2
VPORT
5
8
100
AcDbSymbolTable
0
ENDTAB
0
TABLE
2
LTYPE
5
5
100
AcDbSymbolTable
0
LTYPE
5
14
100
AcDbSymbolTableRecord
100
AcDbLinetypeTableRecord
2
BYBLOCK
70
0
0
LTYPE
5
15
100
AcDbSymbolTableRecord
100
AcDbLinetypeTableRecord
2
BYLAYER
70
0
0
LTYPE
5
16
100
AcDbSymbolTableRecord
100
AcDbLinetypeTableRecord
2
DASHED
70
0
3
Dashed __ __ __ __ __ __ __ __ __ __ __ __ __ _
72
65
73
2
40
0.75
49
0.5
74
0
49
-0.25
74
0
0
ENDTAB
0
TABLE
2
LAYER
5
2
100
AcDbSymbolTable
70
2
0
LAYER
5
50
100
AcDbSymbolTableRecord
100
AcDbLayerTableRecord
2
0
70
0
62
7
6
CONTINUOUS
0
ENDTAB
0
TABLE
2
STYLE
5
3
100
AcDbSymbolTable
70
1
0
STYLE
5
11
100
AcDbSymbolTableRecord
100
AcDbTextStyleTableRecord
2
STANDARD
70
0
0
ENDTAB
0
TABLE
2
VIEW
5
6
100
AcDbSymbolTable
70
0
0
ENDTAB
0
TABLE
2
UCS
5
7
100
AcDbSymbolTable
70
0
0
ENDTAB
0
TABLE
2
APPID
5
9
100
AcDbSymbolTable
70
2
0
APPID
5
12
100
AcDbSymbolTableRecord
100
AcDbRegAppTableRecord
2
ACAD
70
0
0
ENDTAB
0
TABLE
2
DIMSTYLE
5
A
100
AcDbSymbolTable
70
1
0
ENDTAB
0
TABLE
2
BLOCK_RECORD
5
1
100
AcDbSymbolTable
70
1
0
BLOCK_RECORD
5
1F
100
AcDbSymbolTableRecord
100
AcDbBlockTableRecord
2
*MODEL_SPACE
0
BLOCK_RECORD
5
1B
100
AcDbSymbolTableRecord
100
AcDbBlockTableRecord
2
*PAPER_SPACE
0
ENDTAB
0
ENDSEC
0
SECTION
2
BLOCKS
0
BLOCK
5
20
100
AcDbEntity
100
AcDbBlockBegin
2
*MODEL_SPACE
0
ENDBLK
5
21
100
AcDbEntity
100
AcDbBlockEnd
0
BLOCK
5
1C
100
AcDbEntity
100
AcDbBlockBegin
2
*PAPER_SPACE
0
ENDBLK
5
1D
100
AcDbEntity
100
AcDbBlockEnd
0
ENDSEC
0
SECTION
2
ENTITIES
0
LWPOLYLINE
5
100
100
AcDbEntity
8
0
100
AcDbPolyline
90
71
70
1
43
0.0
10
-0.059009038811921981
20
-36.507744715322524
10
-0.059009038811921981
20
-35.929851810603829
10
-0.060880325561523306
20
-35.918187268556323
42
0.91170138792447553
10
-0.88236410797666909
20
-35.920632390512026
42
0.44062981411457142
10
-0.76881797796482465
20
-36.044803030952089
10
-0.7674059671833251
20
-36.044803021921723
42
0.37500974377190921
10
-0.65445429736472105
20
-35.946222346917629
42
-0.38417056353098783
10
-0.47545958859792314
20
-35.794982078162441
42
-0.42135287603159111
10
-0.30900903881191838
20
-35.95743405000762
10
-0.30900903881190211
20
-36.482434050007619
42
-0.42402158699433734
10
-0.47693068951071849
20
-36.644843580835442
42
-0.38193737695459962
10
-0.65446893514420279
20
-36.493454903983128
42
0.37518832388790602
10
-0.76743086950962369
20
-36.394804216163521
10
-0.76884195716591797
20
-36.394804216149787
42
0.44036600958112482
10
-0.88239623754232199
20
-36.518875234393924
42
0.39431029664716083
10
-0.4632477589871164
20
-36.894851315960018
10
3.3931302526760745
20
-36.894851315960018
42
0.33961620478268867
10
4.2625986451439237
20
-36.227283487785208
10
6.3913452817393459
20
-28.264195152991007
42
-0.33961620478265941
10
6.5362566804839783
20
-28.152933848295227
10
10.599664031905883
20
-28.152933848295227
42
-0.25252533781369757
10
10.68323457987602
20
-28.198016059629158
10
10.857569525181184
20
-28.46330836770213
42
0.0037051360704465235
10
10.859627164734855
20
-28.466389564848967
42
0.24937206272582793
10
11.182987998976575
20
-28.638357982553028
10
11.864272550565975
20
-28.638357982553028
42
0.24937206272583015
10
12.187633384807725
20
-28.466389564848981
42
0.003705136070504583
10
12.189691024361487
20
-28.46330836770214
10
12.364025969666564
20
-28.198016059629119
42
-0.25252533781357189
10
12.447596517636677
20
-28.152933848295227
10
16.51100386905858
20
-28.152933848295227
42
-0.33961620478267085
10
16.65591526780322
20
-28.264195152991014
10
18.784661904398572
20
-36.227283487785222
42
0.33961620478271731
10
19.654130296866484
20
-36.894851315960111
10
22.672453963943774
20
-36.894851317630106
10
22.672453963944278
20
-36.89390708734642
42
0.42788352478951769
10
23.048017952071831
20
-36.554309131134517
10
23.048017952071845
20
-36.445909435252524
42
-0.41331850119410996
10
23.148342648804825
20
-36.344804228863026
10
23.268864217198484
20
-36.344804216163524
42
-0.41424826894649253
10
23.393937543048406
20
-36.469892363355214
42
0.99999999999999989
10
23.643937543048381
20
-36.469892363355214
10
23.643937543048377
20
-35.969892363355221
42
0.99999999999999989
10
23.393937543048377
20
-35.969892363355221
42
-0.40591145107189924
10
23.272528577329282
20
-36.094802766524076
10
23.147863906986387
20
-36.09480356380832
42
-0.35603957006430831
10
23.048017952071888
20
-35.972360621929923
10
23.048017952071891
20
-35.835812751271924
42
0.41421356237309503
10
22.923017952071881
20
-35.710812751271916
10
22.922697505498277
20
-35.710812751271916
42
0.41421356237309503
10
22.797697505498274
20
-35.835812751271924
10
22.797697505498267
20
-36.554309131134524
42
-0.40800362496217446
10
22.690805247916188
20
-36.64458153635622
10
22.672453964082827
20
-36.644851317859604
10
19.654130297004777
20
-36.644851315960118
42
-0.33961620484202265
10
19.026180902306365
20
-36.16271899561162
10
16.867691141159678
20
-28.088369356121621
42
0.33961620478274879
10
16.626172143251971
20
-27.902933848295223
10
12.339706328020982
20
-27.902933848295223
42
0.2525253378136969
10
12.214350506065779
20
-27.970557165296125
10
11.981271317724168
20
-28.325242886685519
42
-0.25252533781369652
10
11.864272550565975
20
-28.388357982553025
10
11.182987998976575
20
-28.388357982553018
42
-0.25252533781369663
10
11.065989231818383
20
-28.325242886685519
10
10.83291004347678
20
-27.970557165296125
42
0.25252533781369552
10
10.707554221521576
20
-27.90293384829523
10
6.4210884062906795
20
-27.902933848295223
42
0.33961620478276855
10
6.179569408382922
20
-28.088369356121628
10
4.0210796472361734
20
-36.162718995611591
42
-0.3396162047826658
10
3.3931302526760745
20
-36.644851315960018
10
0.10192116925808019
20
-36.644851315960025
42
-0.36822337482995199
0
LWPOLYLINE
5
101
100
AcDbEntity
8
0
100
AcDbPolyline
90
71
70
1
43
0.0
10
6.1892301682992379
20
-28.090951935808572
10
4.0307404071524848
20
-36.165301575298543
42
-0.3396162047826668
10
3.3931302526760745
20
-36.654851315960023
10
0.10192116925808019
20
-36.65485131596003
42
-0.36955510552141263
10
-0.069009038811922302
20
-36.508532094980616
10
-0.069009038811921983
20
-35.930648841146954
10
-0.070804918809697956
20
-35.919454342093943
42
0.912062077164149
10
-0.87240398508777928
20
-35.921524551954349
42
0.44062981411456165
10
-0.7688180419191224
20
-36.034803030952339
10
-0.76740603113730954
20
-36.034803021921924
42
0.37500974377104662
10
-0.66436240253118473
20
-35.944869774549765
42
-0.38373415220960233
10
-0.47542073992264366
20
-35.784978407611035
42
-0.42087164045307546
10
-0.29900903881191837
20
-35.95743405000762
10
-0.2990090388119015
20
-36.482434050007619
42
-0.42353388934748681
10
-0.47697920179745057
20
-36.654847295777536
42
-0.38149660830037113
10
-0.66437787675520787
20
-36.494801334876151
42
0.37518832388792589
10
-0.76743086950962314
20
-36.404804216163576
10
-0.76884195726325633
20
-36.404804216149792
42
0.44036600930176162
10
-0.87243533576859733
20
-36.517991811743343
42
0.39438173178570002
10
-0.46334852023829631
20
-36.884851315960013
10
3.3931302526760745
20
-36.88485131596002
42
0.33961620478268834
10
4.2529378852276158
20
-36.224700908098256
10
6.3816845218230336
20
-28.261612573304063
42
-0.33961620478266386
10
6.5362566804839783
20
-28.142933848295225
10
10.599664031905883
20
-28.142933848295229
42
-0.25252533781369968
10
10.691591634673033
20
-28.192524280762552
10
10.865926579978197
20
-28.45781658883552
42
0.0037204678931090241
10
10.867910178714313
20
-28.460786716905972
42
0.24938242469651245
10
11.182987998976575
20
-28.628357982552991
10
11.864272550565975
20
-28.628357982553027
42
0.24938242455223186
10
12.179350370712806
20
-28.460786717077156
42
0.003720468108244349
10
12.181333969564427
20
-28.457816588835495
10
12.35566891486955
20
-28.192524280762509
42
-0.25252533781358533
10
12.447596517636677
20
-28.142933848295225
10
16.51100386905858
20
-28.142933848295218
42
-0.33961620478267462
10
16.665576027719531
20
-28.26161257330407
10
18.79432266431488
20
-36.224700908098278
42
0.33961620478271715
10
19.654130296866484
20
-36.884851315960162
10
22.662453963949105
20
-36.884851317624566
10
22.662453963950107
20
-36.882972737327194
42
0.43717359492394847
10
23.038017952071829
20
-36.554173015332701
10
23.038017952692524
20
-36.445921167126535
42
-0.41336053831290254
10
23.1483162701529
20
-36.334804228865806
10
23.26886421614477
20
-36.334804216163526
42
-0.41424698648540781
10
23.403937543047107
20
-36.469892955826218
42
0.99999742404117253
10
23.633937543048358
20
-36.469892363355214
10
23.633937543048379
20
-35.969892363355221
42
0.99999999999999989
10
23.403937543048379
20
-35.969892363355221
42
-0.40622401857974733
10
23.272668024198321
20
-36.104802765632456
10
23.146867130709243
20
-36.104803570183343
42
-0.35820266232893422
10
23.03801795207189
20
-35.972360621929923
10
23.03801795207189
20
-35.835812751271924
42
0.41421356237309503
10
22.923017952071881
20
-35.720812751271914
10
22.922697505498277
20
-35.720812751271922
42
0.41421356237309503
10
22.807697505498272
20
-35.835812751271924
10
22.807697505498275
20
-36.554771768974128
42
-0.40809267272263577
10
22.690521675564035
20
-36.6545867856751
10
22.672527464912427
20
-36.654851317859652
10
19.654130296998449
20
-36.654851315960116
42
-0.33961620483844973
10
19.016520142390057
20
-36.165301575298564
10
16.85803038124337
20
-28.090951935808565
42
0.33961620478274956
10
16.626172143251971
20
-27.912933848295264
10
12.339706328020982
20
-27.912933848295225
42
0.25252533781368924
10
12.222707560862789
20
-27.976048944162727
10
11.989628372521183
20
-28.330734665552132
42
-0.25252533781369674
10
11.864272550565975
20
-28.398357982553026
10
11.182987998976575
20
-28.398357982553023
42
-0.25252533781369824
10
11.05763217702137
20
-28.330734665552125
10
10.824552988679768
20
-27.976048944162731
42
0.25252533781369518
10
10.707554221521576
20
-27.912933848295232
10
6.4210884062906795
20
-27.912933848295225
42
0.33961620478276799
0
ENDSEC
0
SECTION
2
OBJECTS
0
DICTIONARY
5
C
100
AcDbDictionary
3
ACAD_GROUP
350
D
3
ACAD_MLINESTYLE
350
17
0
DICTIONARY
5
D
100
AcDbDictionary
0
DICTIONARY
5
1A
330
C
100
AcDbDictionary
0
DICTIONARY
5
17
100
AcDbDictionary
0
ENDSEC
0
EOF
